<svg xmlns="http://www.w3.org/2000/svg" xmlns:xlink="http://www.w3.org/1999/xlink" width="1080" zoomAndPan="magnify" viewBox="0 0 810 809.999993" height="1080" preserveAspectRatio="xMidYMid meet" version="1.0"><defs><clipPath id="a376d07e93"><path d="M 28.671875 28.671875 L 781.671875 28.671875 L 781.671875 781.671875 L 28.671875 781.671875 Z M 28.671875 28.671875 " clip-rule="nonzero"/></clipPath></defs><path fill="#ffffff" d="M 546.117188 310.914062 C 546.117188 313.222656 546.058594 315.53125 545.945312 317.835938 C 545.832031 320.144531 545.664062 322.445312 545.4375 324.746094 C 545.210938 327.042969 544.925781 329.335938 544.589844 331.621094 C 544.25 333.90625 543.855469 336.179688 543.402344 338.445312 C 542.953125 340.710938 542.449219 342.960938 541.886719 345.203125 C 541.324219 347.441406 540.710938 349.667969 540.039062 351.878906 C 539.367188 354.089844 538.644531 356.28125 537.867188 358.457031 C 537.089844 360.628906 536.257812 362.785156 535.375 364.917969 C 534.488281 367.050781 533.554688 369.164062 532.566406 371.25 C 531.578125 373.339844 530.542969 375.402344 529.453125 377.4375 C 528.363281 379.472656 527.226562 381.484375 526.039062 383.464844 C 524.851562 385.445312 523.617188 387.394531 522.332031 389.316406 C 521.050781 391.238281 519.71875 393.125 518.34375 394.980469 C 516.96875 396.835938 515.546875 398.65625 514.082031 400.441406 C 512.617188 402.226562 511.109375 403.972656 509.558594 405.683594 C 508.007812 407.394531 506.414062 409.066406 504.78125 410.703125 C 503.148438 412.335938 501.476562 413.925781 499.765625 415.476562 C 498.054688 417.027344 496.304688 418.535156 494.519531 420 C 492.734375 421.46875 490.914062 422.886719 489.058594 424.261719 C 487.207031 425.640625 485.316406 426.96875 483.398438 428.25 C 481.476562 429.535156 479.527344 430.769531 477.546875 431.957031 C 475.5625 433.144531 473.554688 434.28125 471.519531 435.371094 C 469.480469 436.460938 467.417969 437.5 465.332031 438.484375 C 463.242188 439.472656 461.132812 440.410156 459 441.292969 C 456.867188 442.175781 454.710938 443.007812 452.535156 443.785156 C 450.363281 444.5625 448.167969 445.289062 445.960938 445.957031 C 443.75 446.628906 441.523438 447.246094 439.285156 447.804688 C 437.042969 448.367188 434.789062 448.871094 432.527344 449.324219 C 430.261719 449.773438 427.984375 450.167969 425.699219 450.507812 C 423.417969 450.847656 421.125 451.128906 418.828125 451.355469 C 416.527344 451.582031 414.226562 451.75 411.917969 451.863281 C 409.613281 451.976562 407.304688 452.035156 404.996094 452.035156 C 402.683594 452.035156 400.375 451.976562 398.070312 451.863281 C 395.761719 451.75 393.460938 451.582031 391.160156 451.355469 C 388.863281 451.128906 386.570312 450.847656 384.289062 450.507812 C 382.003906 450.167969 379.726562 449.773438 377.460938 449.324219 C 375.199219 448.871094 372.945312 448.367188 370.703125 447.804688 C 368.464844 447.246094 366.238281 446.628906 364.027344 445.957031 C 361.820312 445.289062 359.625 444.5625 357.453125 443.785156 C 355.277344 443.007812 353.125 442.175781 350.988281 441.292969 C 348.855469 440.410156 346.746094 439.472656 344.65625 438.484375 C 342.570312 437.5 340.507812 436.460938 338.46875 435.371094 C 336.433594 434.28125 334.425781 433.144531 332.441406 431.957031 C 330.460938 430.769531 328.511719 429.535156 326.589844 428.25 C 324.671875 426.96875 322.785156 425.640625 320.929688 424.261719 C 319.074219 422.886719 317.253906 421.46875 315.46875 420 C 313.683594 418.535156 311.933594 417.027344 310.222656 415.476562 C 308.511719 413.925781 306.839844 412.335938 305.207031 410.703125 C 303.574219 409.066406 301.980469 407.394531 300.429688 405.683594 C 298.878906 403.972656 297.371094 402.226562 295.90625 400.441406 C 294.441406 398.65625 293.019531 396.835938 291.644531 394.980469 C 290.269531 393.125 288.9375 391.238281 287.65625 389.316406 C 286.371094 387.394531 285.136719 385.445312 283.949219 383.464844 C 282.761719 381.484375 281.625 379.472656 280.535156 377.4375 C 279.449219 375.402344 278.410156 373.339844 277.421875 371.25 C 276.433594 369.164062 275.5 367.050781 274.613281 364.917969 C 273.730469 362.785156 272.898438 360.628906 272.121094 358.457031 C 271.34375 356.28125 270.621094 354.089844 269.949219 351.878906 C 269.277344 349.667969 268.664062 347.441406 268.101562 345.203125 C 267.539062 342.960938 267.035156 340.710938 266.585938 338.445312 C 266.132812 336.179688 265.738281 333.90625 265.398438 331.621094 C 265.0625 329.335938 264.777344 327.042969 264.550781 324.746094 C 264.324219 322.445312 264.15625 320.144531 264.042969 317.835938 C 263.929688 315.53125 263.871094 313.222656 263.871094 310.914062 C 263.871094 308.605469 263.929688 306.296875 264.042969 303.988281 C 264.15625 301.683594 264.324219 299.378906 264.550781 297.082031 C 264.777344 294.78125 265.0625 292.492188 265.398438 290.207031 C 265.738281 287.921875 266.132812 285.648438 266.585938 283.382812 C 267.035156 281.117188 267.539062 278.863281 268.101562 276.625 C 268.664062 274.382812 269.277344 272.15625 269.949219 269.949219 C 270.621094 267.738281 271.34375 265.546875 272.121094 263.371094 C 272.898438 261.195312 273.730469 259.042969 274.613281 256.910156 C 275.5 254.773438 276.433594 252.664062 277.421875 250.574219 C 278.410156 248.488281 279.449219 246.425781 280.535156 244.390625 C 281.625 242.351562 282.761719 240.34375 283.949219 238.363281 C 285.136719 236.382812 286.371094 234.429688 287.65625 232.511719 C 288.9375 230.589844 290.269531 228.703125 291.644531 226.847656 C 293.019531 224.992188 294.441406 223.171875 295.90625 221.386719 C 297.371094 219.601562 298.878906 217.851562 300.429688 216.140625 C 301.980469 214.429688 303.574219 212.757812 305.207031 211.125 C 306.839844 209.492188 308.511719 207.898438 310.222656 206.347656 C 311.933594 204.796875 313.683594 203.289062 315.46875 201.824219 C 317.253906 200.359375 319.074219 198.9375 320.929688 197.5625 C 322.785156 196.1875 324.671875 194.859375 326.589844 193.574219 C 328.511719 192.292969 330.460938 191.054688 332.441406 189.871094 C 334.425781 188.683594 336.433594 187.542969 338.46875 186.457031 C 340.507812 185.367188 342.570312 184.328125 344.65625 183.339844 C 346.746094 182.351562 348.855469 181.417969 350.988281 180.535156 C 353.125 179.648438 355.277344 178.820312 357.453125 178.042969 C 359.625 177.261719 361.820312 176.539062 364.027344 175.867188 C 366.238281 175.199219 368.464844 174.582031 370.703125 174.019531 C 372.945312 173.460938 375.199219 172.953125 377.460938 172.503906 C 379.726562 172.050781 382.003906 171.65625 384.289062 171.320312 C 386.570312 170.980469 388.863281 170.699219 391.160156 170.472656 C 393.460938 170.246094 395.761719 170.074219 398.070312 169.960938 C 400.375 169.847656 402.683594 169.792969 404.996094 169.792969 C 407.304688 169.792969 409.613281 169.847656 411.917969 169.960938 C 414.226562 170.074219 416.527344 170.246094 418.828125 170.472656 C 421.125 170.699219 423.417969 170.980469 425.699219 171.320312 C 427.984375 171.65625 430.261719 172.050781 432.527344 172.503906 C 434.789062 172.953125 437.042969 173.460938 439.285156 174.019531 C 441.523438 174.582031 443.75 175.199219 445.960938 175.867188 C 448.167969 176.539062 450.363281 177.261719 452.535156 178.042969 C 454.710938 178.820312 456.867188 179.648438 459 180.535156 C 461.132812 181.417969 463.242188 182.351562 465.332031 183.339844 C 467.417969 184.328125 469.480469 185.367188 471.519531 186.457031 C 473.554688 187.542969 475.5625 188.683594 477.546875 189.871094 C 479.527344 191.054688 481.476562 192.292969 483.398438 193.574219 C 485.316406 194.859375 487.207031 196.1875 489.058594 197.5625 C 490.914062 198.9375 492.734375 200.359375 494.519531 201.824219 C 496.304688 203.289062 498.054688 204.796875 499.765625 206.347656 C 501.476562 207.898438 503.148438 209.492188 504.78125 211.125 C 506.414062 212.757812 508.007812 214.429688 509.558594 216.140625 C 511.109375 217.851562 512.617188 219.601562 514.082031 221.386719 C 515.546875 223.171875 516.96875 224.992188 518.34375 226.847656 C 519.71875 228.703125 521.050781 230.589844 522.332031 232.511719 C 523.617188 234.429688 524.851562 236.382812 526.039062 238.363281 C 527.226562 240.34375 528.363281 242.351562 529.453125 244.390625 C 530.542969 246.425781 531.578125 248.488281 532.566406 250.574219 C 533.554688 252.664062 534.488281 254.773438 535.375 256.910156 C 536.257812 259.042969 537.089844 261.195312 537.867188 263.371094 C 538.644531 265.546875 539.367188 267.738281 540.039062 269.949219 C 540.710938 272.15625 541.324219 274.382812 541.886719 276.625 C 542.449219 278.863281 542.953125 281.117188 543.402344 283.382812 C 543.855469 285.648438 544.25 287.921875 544.589844 290.207031 C 544.925781 292.492188 545.210938 294.78125 545.4375 297.082031 C 545.664062 299.378906 545.832031 301.683594 545.945312 303.988281 C 546.058594 306.296875 546.117188 308.605469 546.117188 310.914062 " fill-opacity="1" fill-rule="nonzero"/><g clip-path="url(#a376d07e93)"><path fill="#ffffff" d="M 28.671875 404.996094 C 28.671875 398.835938 28.820312 392.679688 29.125 386.527344 C 29.425781 380.378906 29.878906 374.238281 30.480469 368.109375 C 31.085938 361.980469 31.839844 355.867188 32.742188 349.777344 C 33.648438 343.683594 34.699219 337.617188 35.902344 331.578125 C 37.101562 325.535156 38.453125 319.527344 39.949219 313.554688 C 41.445312 307.582031 43.085938 301.648438 44.875 295.753906 C 46.664062 289.859375 48.59375 284.011719 50.667969 278.214844 C 52.742188 272.414062 54.960938 266.671875 57.316406 260.980469 C 59.671875 255.292969 62.167969 249.664062 64.800781 244.09375 C 67.433594 238.527344 70.203125 233.027344 73.105469 227.597656 C 76.007812 222.164062 79.042969 216.808594 82.210938 211.523438 C 85.375 206.242188 88.671875 201.039062 92.09375 195.917969 C 95.515625 190.800781 99.058594 185.765625 102.726562 180.816406 C 106.398438 175.871094 110.183594 171.019531 114.089844 166.257812 C 118 161.496094 122.019531 156.832031 126.15625 152.269531 C 130.292969 147.707031 134.539062 143.246094 138.894531 138.894531 C 143.246094 134.539062 147.707031 130.292969 152.269531 126.15625 C 156.832031 122.019531 161.496094 118 166.257812 114.089844 C 171.019531 110.183594 175.871094 106.398438 180.816406 102.726562 C 185.765625 99.058594 190.800781 95.515625 195.917969 92.09375 C 201.039062 88.671875 206.242188 85.375 211.523438 82.210938 C 216.808594 79.042969 222.164062 76.007812 227.597656 73.105469 C 233.027344 70.203125 238.527344 67.433594 244.09375 64.800781 C 249.664062 62.167969 255.292969 59.671875 260.980469 57.316406 C 266.671875 54.960938 272.414062 52.742188 278.214844 50.667969 C 284.011719 48.59375 289.859375 46.664062 295.753906 44.875 C 301.648438 43.085938 307.582031 41.445312 313.554688 39.949219 C 319.527344 38.453125 325.535156 37.101562 331.578125 35.902344 C 337.617188 34.699219 343.683594 33.648438 349.777344 32.742188 C 355.867188 31.839844 361.980469 31.085938 368.109375 30.480469 C 374.238281 29.878906 380.378906 29.425781 386.527344 29.125 C 392.679688 28.820312 398.835938 28.671875 404.996094 28.671875 C 411.152344 28.671875 417.308594 28.820312 423.460938 29.125 C 429.609375 29.425781 435.75 29.878906 441.878906 30.480469 C 448.007812 31.085938 454.121094 31.839844 460.210938 32.742188 C 466.304688 33.648438 472.371094 34.699219 478.410156 35.902344 C 484.453125 37.101562 490.460938 38.453125 496.433594 39.949219 C 502.40625 41.445312 508.339844 43.085938 514.234375 44.875 C 520.128906 46.664062 525.976562 48.59375 531.773438 50.667969 C 537.574219 52.742188 543.316406 54.960938 549.007812 57.316406 C 554.699219 59.671875 560.324219 62.167969 565.894531 64.800781 C 571.460938 67.433594 576.960938 70.203125 582.390625 73.105469 C 587.824219 76.007812 593.179688 79.042969 598.464844 82.210938 C 603.746094 85.375 608.949219 88.671875 614.070312 92.09375 C 619.191406 95.515625 624.222656 99.058594 629.171875 102.726562 C 634.117188 106.398438 638.972656 110.183594 643.730469 114.089844 C 648.492188 118 653.15625 122.019531 657.71875 126.15625 C 662.28125 130.292969 666.742188 134.539062 671.09375 138.894531 C 675.449219 143.246094 679.695312 147.707031 683.832031 152.269531 C 687.96875 156.832031 691.988281 161.496094 695.898438 166.257812 C 699.804688 171.019531 703.59375 175.871094 707.261719 180.816406 C 710.929688 185.765625 714.476562 190.800781 717.894531 195.917969 C 721.316406 201.039062 724.613281 206.242188 727.777344 211.523438 C 730.945312 216.808594 733.980469 222.164062 736.882812 227.597656 C 739.785156 233.027344 742.554688 238.527344 745.1875 244.09375 C 747.820312 249.664062 750.316406 255.292969 752.671875 260.980469 C 755.03125 266.671875 757.246094 272.414062 759.320312 278.214844 C 761.394531 284.011719 763.328125 289.859375 765.113281 295.753906 C 766.902344 301.648438 768.542969 307.582031 770.039062 313.554688 C 771.535156 319.527344 772.886719 325.535156 774.085938 331.578125 C 775.289062 337.617188 776.339844 343.683594 777.246094 349.777344 C 778.148438 355.867188 778.902344 361.980469 779.507812 368.109375 C 780.109375 374.238281 780.5625 380.378906 780.863281 386.527344 C 781.167969 392.679688 781.320312 398.835938 781.320312 404.996094 C 781.320312 411.152344 781.167969 417.308594 780.867188 423.460938 C 780.5625 429.609375 780.109375 435.75 779.507812 441.878906 C 778.902344 448.007812 778.148438 454.121094 777.246094 460.210938 C 776.339844 466.304688 775.289062 472.371094 774.085938 478.410156 C 772.886719 484.453125 771.535156 490.460938 770.039062 496.433594 C 768.542969 502.40625 766.902344 508.34375 765.113281 514.234375 C 763.328125 520.128906 761.394531 525.976562 759.320312 531.773438 C 757.246094 537.574219 755.03125 543.316406 752.671875 549.007812 C 750.316406 554.699219 747.820312 560.324219 745.1875 565.894531 C 742.554688 571.460938 739.785156 576.960938 736.882812 582.390625 C 733.980469 587.824219 730.945312 593.179688 727.777344 598.464844 C 724.613281 603.746094 721.316406 608.949219 717.894531 614.070312 C 714.476562 619.191406 710.929688 624.222656 707.261719 629.171875 C 703.59375 634.117188 699.804688 638.972656 695.898438 643.730469 C 691.988281 648.492188 687.96875 653.15625 683.832031 657.71875 C 679.695312 662.28125 675.449219 666.742188 671.09375 671.09375 C 666.742188 675.449219 662.28125 679.695312 657.71875 683.832031 C 653.15625 687.96875 648.492188 691.988281 643.730469 695.898438 C 638.972656 699.804688 634.117188 703.59375 629.171875 707.261719 C 624.222656 710.929688 619.191406 714.476562 614.070312 717.894531 C 608.949219 721.316406 603.746094 724.613281 598.464844 727.777344 C 593.179688 730.945312 587.824219 733.980469 582.390625 736.882812 C 576.960938 739.785156 571.460938 742.554688 565.894531 745.1875 C 560.324219 747.820312 554.699219 750.316406 549.007812 752.671875 C 543.316406 755.03125 537.574219 757.246094 531.773438 759.320312 C 525.976562 761.394531 520.128906 763.328125 514.234375 765.113281 C 508.339844 766.902344 502.40625 768.542969 496.433594 770.039062 C 490.460938 771.535156 484.453125 772.886719 478.410156 774.085938 C 472.371094 775.289062 466.304688 776.339844 460.210938 777.246094 C 454.121094 778.148438 448.007812 778.902344 441.878906 779.507812 C 435.75 780.109375 429.609375 780.5625 423.460938 780.863281 C 417.308594 781.167969 411.152344 781.320312 404.996094 781.320312 C 398.835938 781.320312 392.679688 781.167969 386.527344 780.867188 C 380.378906 780.5625 374.238281 780.109375 368.109375 779.507812 C 361.980469 778.902344 355.867188 778.148438 349.777344 777.246094 C 343.683594 776.339844 337.617188 775.289062 331.578125 774.085938 C 325.535156 772.886719 319.527344 771.535156 313.554688 770.039062 C 307.582031 768.542969 301.648438 766.902344 295.753906 765.113281 C 289.859375 763.328125 284.011719 761.394531 278.214844 759.320312 C 272.414062 757.246094 266.671875 755.03125 260.980469 752.671875 C 255.292969 750.316406 249.664062 747.820312 244.09375 745.1875 C 238.527344 742.554688 233.027344 739.785156 227.597656 736.882812 C 222.164062 733.980469 216.808594 730.945312 211.523438 727.777344 C 206.242188 724.613281 201.039062 721.316406 195.917969 717.894531 C 190.800781 714.476562 185.765625 710.929688 180.816406 707.261719 C 175.871094 703.59375 171.019531 699.804688 166.257812 695.898438 C 161.496094 691.988281 156.832031 687.96875 152.269531 683.832031 C 147.707031 679.695312 143.246094 675.449219 138.894531 671.09375 C 134.539062 666.742188 130.292969 662.28125 126.15625 657.71875 C 122.019531 653.15625 118 648.492188 114.089844 643.730469 C 110.183594 638.972656 106.398438 634.117188 102.726562 629.171875 C 99.058594 624.222656 95.515625 619.191406 92.09375 614.070312 C 88.671875 608.949219 85.375 603.746094 82.210938 598.464844 C 79.042969 593.179688 76.007812 587.824219 73.105469 582.390625 C 70.203125 576.960938 67.433594 571.460938 64.800781 565.894531 C 62.167969 560.324219 59.671875 554.699219 57.316406 549.007812 C 54.960938 543.316406 52.742188 537.574219 50.667969 531.773438 C 48.59375 525.976562 46.664062 520.128906 44.875 514.234375 C 43.085938 508.34375 41.445312 502.40625 39.949219 496.433594 C 38.453125 490.460938 37.101562 484.453125 35.902344 478.410156 C 34.699219 472.371094 33.648438 466.304688 32.742188 460.210938 C 31.839844 454.121094 31.085938 448.007812 30.480469 441.878906 C 29.878906 435.75 29.425781 429.609375 29.125 423.460938 C 28.820312 417.308594 28.671875 411.152344 28.671875 404.996094 M 404.996094 75.710938 C 401.144531 75.710938 397.292969 75.777344 393.445312 75.914062 C 389.597656 76.050781 385.753906 76.25 381.914062 76.523438 C 378.070312 76.792969 374.234375 77.128906 370.40625 77.535156 C 366.578125 77.9375 362.757812 78.410156 358.945312 78.949219 C 355.132812 79.488281 351.328125 80.09375 347.539062 80.765625 C 343.746094 81.4375 339.96875 82.175781 336.203125 82.980469 C 332.4375 83.785156 328.6875 84.65625 324.953125 85.589844 C 321.214844 86.527344 317.5 87.527344 313.800781 88.597656 C 310.097656 89.664062 306.417969 90.792969 302.757812 91.988281 C 299.097656 93.183594 295.460938 94.445312 291.84375 95.769531 C 288.230469 97.089844 284.636719 98.476562 281.070312 99.925781 C 277.503906 101.375 273.960938 102.886719 270.449219 104.460938 C 266.933594 106.035156 263.449219 107.667969 259.992188 109.367188 C 256.535156 111.0625 253.105469 112.816406 249.710938 114.632812 C 246.316406 116.449219 242.953125 118.324219 239.625 120.257812 C 236.292969 122.191406 233 124.183594 229.738281 126.234375 C 226.480469 128.28125 223.257812 130.390625 220.070312 132.550781 C 216.886719 134.714844 213.738281 136.933594 210.632812 139.207031 C 207.523438 141.476562 204.457031 143.804688 201.429688 146.1875 C 198.402344 148.566406 195.417969 151 192.476562 153.484375 C 189.535156 155.96875 186.640625 158.507812 183.789062 161.09375 C 180.9375 163.679688 178.128906 166.316406 175.371094 169 C 172.609375 171.6875 169.898438 174.417969 167.234375 177.199219 C 164.570312 179.980469 161.957031 182.808594 159.394531 185.679688 C 156.828125 188.550781 154.316406 191.46875 151.851562 194.429688 C 149.390625 197.386719 146.980469 200.390625 144.625 203.4375 C 142.265625 206.480469 139.964844 209.566406 137.714844 212.691406 C 135.464844 215.816406 133.273438 218.980469 131.136719 222.183594 C 128.996094 225.386719 126.917969 228.625 124.894531 231.902344 C 122.867188 235.175781 120.902344 238.488281 118.996094 241.832031 C 117.085938 245.175781 115.238281 248.554688 113.449219 251.964844 C 111.660156 255.371094 109.929688 258.8125 108.261719 262.28125 C 106.59375 265.753906 104.984375 269.25 103.4375 272.777344 C 101.890625 276.304688 100.410156 279.855469 98.988281 283.433594 C 97.566406 287.015625 96.207031 290.617188 94.914062 294.242188 C 93.617188 297.867188 92.386719 301.515625 91.21875 305.1875 C 90.050781 308.855469 88.949219 312.542969 87.910156 316.25 C 86.875 319.960938 85.902344 323.683594 84.996094 327.425781 C 84.085938 331.167969 83.246094 334.925781 82.472656 338.699219 C 81.695312 342.46875 80.988281 346.253906 80.34375 350.050781 C 79.703125 353.847656 79.125 357.652344 78.617188 361.46875 C 78.109375 365.289062 77.667969 369.113281 77.292969 372.945312 C 76.917969 376.777344 76.609375 380.613281 76.371094 384.457031 C 76.128906 388.300781 75.957031 392.144531 75.851562 395.996094 C 75.746094 399.84375 75.707031 403.695312 75.738281 407.542969 C 75.769531 411.394531 75.863281 415.242188 76.03125 419.089844 C 76.195312 422.9375 76.425781 426.78125 76.726562 430.621094 C 77.027344 434.457031 77.394531 438.289062 77.828125 442.117188 C 78.261719 445.941406 78.761719 449.761719 79.332031 453.570312 C 79.898438 457.375 80.53125 461.175781 81.234375 464.960938 C 81.9375 468.746094 82.703125 472.519531 83.535156 476.277344 C 84.371094 480.039062 85.269531 483.78125 86.234375 487.507812 C 87.199219 491.238281 88.230469 494.945312 89.324219 498.636719 C 90.417969 502.328125 91.578125 506 92.800781 509.652344 C 94.027344 513.300781 95.3125 516.929688 96.664062 520.535156 C 98.015625 524.140625 99.429688 527.722656 100.90625 531.277344 C 102.382812 534.835938 103.921875 538.363281 105.523438 541.867188 C 107.125 545.367188 108.785156 548.839844 110.507812 552.285156 C 112.230469 555.730469 114.011719 559.140625 115.855469 562.523438 C 117.695312 565.90625 119.597656 569.253906 121.554688 572.566406 C 123.515625 575.882812 125.53125 579.160156 127.605469 582.40625 C 129.683594 585.648438 131.8125 588.855469 134 592.023438 C 136.1875 595.195312 138.429688 598.324219 140.726562 601.414062 C 143.023438 604.503906 145.371094 607.554688 147.777344 610.5625 C 181.175781 556.746094 254.699219 499.074219 404.996094 499.074219 C 555.289062 499.074219 628.765625 556.699219 662.210938 610.5625 C 664.617188 607.554688 666.964844 604.503906 669.261719 601.414062 C 671.558594 598.324219 673.800781 595.195312 675.988281 592.023438 C 678.175781 588.855469 680.308594 585.648438 682.382812 582.40625 C 684.457031 579.160156 686.472656 575.882812 688.433594 572.566406 C 690.390625 569.253906 692.292969 565.90625 694.136719 562.523438 C 695.976562 559.140625 697.757812 555.730469 699.480469 552.285156 C 701.203125 548.839844 702.867188 545.367188 704.464844 541.867188 C 706.066406 538.363281 707.605469 534.835938 709.082031 531.277344 C 710.558594 527.722656 711.972656 524.140625 713.324219 520.535156 C 714.675781 516.929688 715.960938 513.300781 717.1875 509.652344 C 718.410156 506 719.570312 502.328125 720.664062 498.636719 C 721.757812 494.945312 722.789062 491.234375 723.753906 487.507812 C 724.71875 483.78125 725.617188 480.039062 726.453125 476.277344 C 727.285156 472.519531 728.054688 468.746094 728.753906 464.960938 C 729.457031 461.175781 730.089844 457.375 730.65625 453.566406 C 731.226562 449.761719 731.726562 445.941406 732.160156 442.117188 C 732.59375 438.289062 732.960938 434.457031 733.261719 430.621094 C 733.5625 426.78125 733.792969 422.9375 733.957031 419.089844 C 734.125 415.242188 734.222656 411.394531 734.25 407.542969 C 734.28125 403.695312 734.242188 399.84375 734.136719 395.996094 C 734.03125 392.144531 733.859375 388.300781 733.621094 384.457031 C 733.378906 380.613281 733.070312 376.777344 732.695312 372.945312 C 732.320312 369.113281 731.878906 365.289062 731.371094 361.46875 C 730.863281 357.652344 730.285156 353.847656 729.644531 350.050781 C 729 346.253906 728.292969 342.46875 727.519531 338.699219 C 726.742188 334.925781 725.902344 331.167969 724.996094 327.425781 C 724.085938 323.683594 723.113281 319.960938 722.078125 316.25 C 721.039062 312.542969 719.9375 308.855469 718.769531 305.1875 C 717.601562 301.515625 716.371094 297.867188 715.078125 294.242188 C 713.78125 290.617188 712.421875 287.011719 711 283.433594 C 709.578125 279.855469 708.097656 276.304688 706.550781 272.777344 C 705.003906 269.25 703.398438 265.753906 701.726562 262.28125 C 700.058594 258.8125 698.328125 255.371094 696.539062 251.964844 C 694.75 248.554688 692.902344 245.175781 690.992188 241.832031 C 689.085938 238.488281 687.121094 235.175781 685.097656 231.902344 C 683.070312 228.625 680.992188 225.386719 678.851562 222.183594 C 676.714844 218.980469 674.523438 215.816406 672.273438 212.691406 C 670.023438 209.566406 667.722656 206.480469 665.363281 203.4375 C 663.007812 200.390625 660.597656 197.386719 658.136719 194.429688 C 655.671875 191.46875 653.160156 188.550781 650.59375 185.679688 C 648.03125 182.808594 645.417969 179.980469 642.753906 177.199219 C 640.089844 174.417969 637.378906 171.6875 634.617188 169 C 631.859375 166.316406 629.050781 163.679688 626.199219 161.09375 C 623.347656 158.507812 620.453125 155.96875 617.511719 153.484375 C 614.570312 151 611.585938 148.566406 608.558594 146.1875 C 605.53125 143.804688 602.464844 141.476562 599.359375 139.207031 C 596.25 136.933594 593.101562 134.714844 589.917969 132.550781 C 586.730469 130.390625 583.507812 128.28125 580.25 126.234375 C 576.988281 124.183594 573.695312 122.191406 570.363281 120.257812 C 567.035156 118.324219 563.671875 116.449219 560.277344 114.632812 C 556.882812 112.816406 553.457031 111.0625 550 109.367188 C 546.542969 107.667969 543.054688 106.035156 539.542969 104.460938 C 536.027344 102.886719 532.484375 101.375 528.917969 99.925781 C 525.351562 98.476562 521.757812 97.089844 518.144531 95.769531 C 514.527344 94.445312 510.890625 93.183594 507.230469 91.988281 C 503.570312 90.792969 499.890625 89.664062 496.1875 88.597656 C 492.488281 87.527344 488.773438 86.527344 485.035156 85.589844 C 481.300781 84.65625 477.550781 83.785156 473.785156 82.980469 C 470.019531 82.175781 466.242188 81.4375 462.449219 80.765625 C 458.660156 80.09375 454.855469 79.488281 451.042969 78.949219 C 447.230469 78.410156 443.410156 77.9375 439.582031 77.535156 C 435.753906 77.128906 431.917969 76.792969 428.078125 76.523438 C 424.234375 76.25 420.390625 76.050781 416.542969 75.914062 C 412.695312 75.777344 408.84375 75.710938 404.996094 75.710938 " fill-opacity="1" fill-rule="evenodd"/></g></svg>