<svg xmlns="http://www.w3.org/2000/svg" xmlns:xlink="http://www.w3.org/1999/xlink" width="1280" zoomAndPan="magnify" viewBox="0 0 960 959.999988" height="1280" preserveAspectRatio="xMidYMid meet" version="1.0"><defs><g/></defs><g fill="#000000" fill-opacity="1"><g transform="translate(61.07771, 543.662778)"><g><path d="M 25.796875 0 C 20.160156 0 15.632812 -1.492188 12.21875 -4.484375 C 8.8125 -7.484375 7.109375 -11.503906 7.109375 -16.546875 C 7.109375 -21.285156 8.769531 -25.816406 12.09375 -30.140625 L 64.296875 -97.546875 L 64.296875 -98.265625 L 22.5 -98.265625 C 17.457031 -98.265625 13.425781 -99.582031 10.40625 -102.21875 C 7.382812 -104.863281 5.875 -108.554688 5.875 -113.296875 C 5.875 -118.035156 7.351562 -121.722656 10.3125 -124.359375 C 13.28125 -127.003906 17.34375 -128.328125 22.5 -128.328125 L 89.546875 -128.328125 C 95.296875 -128.328125 99.84375 -126.769531 103.1875 -123.65625 C 106.539062 -120.539062 108.21875 -116.285156 108.21875 -110.890625 C 108.21875 -108.335938 107.742188 -106.066406 106.796875 -104.078125 C 105.847656 -102.097656 104.546875 -100.015625 102.890625 -97.828125 L 51.21875 -30.765625 L 51.21875 -30.0625 L 95.515625 -30.0625 C 100.671875 -30.0625 104.726562 -28.738281 107.6875 -26.09375 C 110.65625 -23.457031 112.140625 -19.769531 112.140625 -15.03125 C 112.140625 -10.289062 110.625 -6.597656 107.59375 -3.953125 C 104.570312 -1.316406 100.546875 0 95.515625 0 Z M 25.796875 0 "/></g></g></g><g fill="#000000" fill-opacity="1"><g transform="translate(178.547445, 543.662778)"><g><path d="M 70.4375 2.21875 C 50.507812 2.21875 34.75 -3.722656 23.15625 -15.609375 C 11.570312 -27.492188 5.78125 -43.660156 5.78125 -64.109375 C 5.78125 -84.566406 11.585938 -100.753906 23.203125 -112.671875 C 34.828125 -124.585938 50.566406 -130.546875 70.421875 -130.546875 C 90.285156 -130.546875 106.023438 -124.585938 117.640625 -112.671875 C 129.265625 -100.753906 135.078125 -84.566406 135.078125 -64.109375 C 135.078125 -43.660156 129.265625 -27.492188 117.640625 -15.609375 C 106.023438 -3.722656 90.289062 2.21875 70.4375 2.21875 Z M 51.359375 -37.703125 C 56.128906 -31.117188 62.484375 -27.828125 70.421875 -27.828125 C 78.367188 -27.828125 84.726562 -31.117188 89.5 -37.703125 C 94.28125 -44.285156 96.671875 -53.09375 96.671875 -64.125 C 96.671875 -75.207031 94.269531 -84.035156 89.46875 -90.609375 C 84.664062 -97.191406 78.320312 -100.484375 70.4375 -100.484375 C 62.550781 -100.484375 56.207031 -97.191406 51.40625 -90.609375 C 46.601562 -84.035156 44.203125 -75.207031 44.203125 -64.125 C 44.203125 -53.09375 46.585938 -44.285156 51.359375 -37.703125 Z M 51.359375 -37.703125 "/></g></g></g><g fill="#000000" fill-opacity="1"><g transform="translate(319.404417, 543.662778)"><g><path d="M 37.484375 -2.3125 C 34.609375 0.707031 30.5625 2.21875 25.34375 2.21875 C 20.125 2.21875 16.078125 0.707031 13.203125 -2.3125 C 10.328125 -5.332031 8.890625 -9.628906 8.890625 -15.203125 L 8.890625 -105.828125 C 8.890625 -113.765625 10.992188 -119.867188 15.203125 -124.140625 C 19.410156 -128.410156 25.457031 -130.546875 33.34375 -130.546875 C 39.988281 -130.546875 45.25 -129.09375 49.125 -126.1875 C 53.007812 -123.28125 56.285156 -118.332031 58.953125 -111.34375 L 81.1875 -53.453125 L 81.90625 -53.453125 L 104.046875 -111.34375 C 106.710938 -118.332031 109.988281 -123.28125 113.875 -126.1875 C 117.757812 -129.09375 123.019531 -130.546875 129.65625 -130.546875 C 137.539062 -130.546875 143.585938 -128.410156 147.796875 -124.140625 C 152.003906 -119.867188 154.109375 -113.765625 154.109375 -105.828125 L 154.109375 -15.203125 C 154.109375 -9.628906 152.671875 -5.332031 149.796875 -2.3125 C 146.921875 0.707031 142.875 2.21875 137.65625 2.21875 C 132.4375 2.21875 128.390625 0.707031 125.515625 -2.3125 C 122.640625 -5.332031 121.203125 -9.628906 121.203125 -15.203125 L 121.203125 -74.34375 L 120.5 -74.34375 L 94.96875 -10.046875 C 92.476562 -3.765625 88.035156 -0.625 81.640625 -0.625 C 74.992188 -0.625 70.457031 -3.765625 68.03125 -10.046875 L 42.5 -74.34375 L 41.796875 -74.34375 L 41.796875 -15.203125 C 41.796875 -9.628906 40.359375 -5.332031 37.484375 -2.3125 Z M 37.484375 -2.3125 "/></g></g></g><g fill="#000000" fill-opacity="1"><g transform="translate(482.403675, 543.662778)"><g><path d="M 25.4375 2.21875 C 19.445312 2.21875 14.742188 0.601562 11.328125 -2.625 C 7.921875 -5.851562 6.21875 -10.3125 6.21875 -16 C 6.21875 -19.625 7.109375 -23.835938 8.890625 -28.640625 L 37.609375 -107.953125 C 40.335938 -115.722656 44.117188 -121.429688 48.953125 -125.078125 C 53.785156 -128.722656 59.96875 -130.546875 67.5 -130.546875 C 75.5625 -130.546875 82.035156 -128.765625 86.921875 -125.203125 C 91.816406 -121.648438 95.71875 -115.898438 98.625 -107.953125 L 127.609375 -28.640625 C 129.273438 -24.066406 130.109375 -19.882812 130.109375 -16.09375 C 130.109375 -10.757812 128.328125 -6.375 124.765625 -2.9375 C 121.210938 0.5 116.707031 2.21875 111.25 2.21875 C 105.675781 2.21875 101.332031 0.859375 98.21875 -1.859375 C 95.101562 -4.585938 92.75 -9.066406 91.15625 -15.296875 L 88.921875 -24.015625 L 47.125 -24.015625 L 44.90625 -15.921875 C 43.125 -9.453125 40.707031 -4.8125 37.65625 -2 C 34.601562 0.8125 30.53125 2.21875 25.4375 2.21875 Z M 54.25 -52.109375 L 81.015625 -52.109375 L 67.671875 -98.703125 L 66.96875 -98.703125 Z M 54.25 -52.109375 "/></g></g></g><g fill="#000000" fill-opacity="1"><g transform="translate(618.814407, 543.662778)"><g><path d="M 70.5625 -2.9375 C 67.269531 0.5 62.628906 2.21875 56.640625 2.21875 C 50.660156 2.21875 46.023438 0.5 42.734375 -2.9375 C 39.441406 -6.375 37.796875 -11.234375 37.796875 -17.515625 L 37.796875 -98.265625 L 18.859375 -98.265625 C 13.816406 -98.265625 9.78125 -99.582031 6.75 -102.21875 C 3.726562 -104.863281 2.21875 -108.554688 2.21875 -113.296875 C 2.21875 -118.035156 3.695312 -121.722656 6.65625 -124.359375 C 9.625 -127.003906 13.691406 -128.328125 18.859375 -128.328125 L 94.4375 -128.328125 C 99.59375 -128.328125 103.65625 -127.003906 106.625 -124.359375 C 109.59375 -121.722656 111.078125 -118.035156 111.078125 -113.296875 C 111.078125 -108.554688 109.5625 -104.863281 106.53125 -102.21875 C 103.507812 -99.582031 99.476562 -98.265625 94.4375 -98.265625 L 75.5 -98.265625 L 75.5 -17.515625 C 75.5 -11.234375 73.851562 -6.375 70.5625 -2.9375 Z M 70.5625 -2.9375 "/></g></g></g><g fill="#000000" fill-opacity="1"><g transform="translate(732.104674, 543.662778)"><g><path d="M 70.4375 2.21875 C 50.507812 2.21875 34.75 -3.722656 23.15625 -15.609375 C 11.570312 -27.492188 5.78125 -43.660156 5.78125 -64.109375 C 5.78125 -84.566406 11.585938 -100.753906 23.203125 -112.671875 C 34.828125 -124.585938 50.566406 -130.546875 70.421875 -130.546875 C 90.285156 -130.546875 106.023438 -124.585938 117.640625 -112.671875 C 129.265625 -100.753906 135.078125 -84.566406 135.078125 -64.109375 C 135.078125 -43.660156 129.265625 -27.492188 117.640625 -15.609375 C 106.023438 -3.722656 90.289062 2.21875 70.4375 2.21875 Z M 51.359375 -37.703125 C 56.128906 -31.117188 62.484375 -27.828125 70.421875 -27.828125 C 78.367188 -27.828125 84.726562 -31.117188 89.5 -37.703125 C 94.28125 -44.285156 96.671875 -53.09375 96.671875 -64.125 C 96.671875 -75.207031 94.269531 -84.035156 89.46875 -90.609375 C 84.664062 -97.191406 78.320312 -100.484375 70.4375 -100.484375 C 62.550781 -100.484375 56.207031 -97.191406 51.40625 -90.609375 C 46.601562 -84.035156 44.203125 -75.207031 44.203125 -64.125 C 44.203125 -53.09375 46.585938 -44.285156 51.359375 -37.703125 Z M 51.359375 -37.703125 "/></g></g></g></svg>